<svg width="100%" height="100%" version="1.1" xmlns='http://www.w3.org/2000/svg'>
  <g class="polygons" stroke="lightsteelblue" fill="white">
    <path d="M222 500l3-16 9-70-75-38-16 7-6 16-7 101zm182-369l53 112 65-41 2-19zm171 226l15 21 97 36 33-87-6-12-29-28h-44l-20 3zM814 97l50 13 96-70V0h-90l-9 15zM479 27l51-27h-37zm416 189l65 43v-65l-9-6-50-32zm20 185l45 48v-74zM0 155l63 30 43-4 11-50-34-38-2-1-81 44zm384-40l4 1 31-12 54-61-2-6-23-37h-48zm-46 75l5 51 67 9-53-96z"/>
    <path d="M510 317l47 39 18 1 46-67-22-36-55-21zM124 47l35 29 2-3 25-66-1-7h-36zM448 0l23 37 8-10 14-27zM159 376l75 38 40-41-12-27-26-27-70 23zm705-266l21 19 9 6 23-3 43-5V40zM45 255l1 3 13 9 77-10 3-5 7-16v-25l-40-30-43 4z"/>
    <path d="M115 330l8 43 20 10 16-7 7-34-3-10-28-30zm40-121l89 43 18-20 2-13-12-17-35-10zm361 291l-31-58-52 26-16 32zm185-66l21 66h68l20-59-2-8-33-32zm182-49l32 16 45-26v-89l-28 14z"/>
    <path d="M405 408l1 27 27 33 52-26-3-19-29-17-44-3zM89 500l-50-65-28-26-11-2v93z"/>
    <path d="M0 407l11 2 53-41 9-40-1-8-55-20-17 9zm241-144l50 24 19-16-48-39-18 20zm96-3l23 25 72-20-22-15-67-9zM233 0l7 52 6 8 34-19-4-41z"/>
    <path d="M159 76l4 11 46 21h22l4-2 11-46-6-8-30-13-49 34zm648 266l5 3 108-47-86-25-13 6zM64 368l59 5-8-43-42-2zM0 309l17-9 29-42-1-3-45-8z"/>
    <path d="M161 73l49-34-24-32zm64 411l114-51-49-60h-16l-40 41zm346 16l120-78-4-8-97-36z"/>
    <path d="M322 500l18-66-1-1-114 51-3 16zm97-396l107-5 22-49-75-7zm164 53l28 51 43-12 79-61 5-22-34-36z"/>
    <path d="M522 202l22 31 55 21 12-46-28-51-38 1-21 25zm-287-96l73 22 55 4 18-16-63-67-38-8-34 19zm622 107l38 3 6-60-7-21-9-6zM380 348l13 17 69-25 19-31-33-32zm432-3l28 26 43 14 49-85-12-2z"/>
    <path d="M834 273l86 25 12 2 28-14v-27l-65-43-38-3-3 1zM482 423l3 19 31 58h55l19-122-15-21-18-1zm117-169l22 36 20-3 13-91-43 12zM392 500l-3-22-47-44h-2l-18 66zM0 136l81-44L1 0H0zm714 179l6 12 71 20 16-5 14-63-8-5-39-8zM777 0l84 15 9-15zm140 132l34 56 9 6v-67zM163 332l3 10 70-23-10-28-43 11z"/>
    <path d="M750 114l66 71 38 29 3-1 28-84-21-19-50-13zm-498 88l12 17 74-29 19-36 6-22-55-4-52 57zm141 163l16 38 44 3 9-66zM39 435l50 65h41l7-101zm683 65l-21-66-10-12-120 78zM72 320l1 8 42 2 20-28-6-19-50 22z"/>
    <path d="M217 192l35 10 4-17-25-73zm229 77l2 8 33 32 29 8 34-84-22-31-65 41zM52 0l61 45 11 2 25-47zm210 346l12 27h16l33-19-6-84-7 1-19 16zm-133-63l6 19 28 30 20-30-44-50-3 5zm679 150l2 8 61-10 12-46-43-14z"/>
    <path d="M1 0l80 92 2 1 30-48L52 0zm16 300l55 20 7-15-20-38-13-9zm300-30l6 84 42-10-5-59-23-25zm1-221l63 67 3-1L400 0h-76z"/>
    <path d="M262 232l48 39 7-1 20-10 6-19-5-51-74 29zm468-56l44 90 39 8-8-25-73-98zM453 406l29 17 75-67-47-39-29-8-19 31zM185 0l1 7 24 32 30 13-7-52zm91 0l4 41 38 8 6-49zm66 434l47 44 17-43-1-27zm47 44l3 22h25l16-32-27-33z"/>
    <path d="M685 287l29 28 60-49-44-90zm47-136l73 98 11-64-66-71-12-1-5 22zm-45 263l4 8 10 12 74-33 16-54-71-20zm184 17l26 69h63v-51l-45-48-32-16zM360 285l5 59 15 4 68-71-2-8-14-4zm-214-49l80 55 15-28 3-11-89-43h-4l-5 2zm5-27h4l62-17 14-80v-4h-22z"/>
    <path d="M897 500l-26-69-61 10-20 59zM226 291l10 28 26 27 29-59-50-24zM672 0l32 77 34 36 12 1 64-17 47-82-84-15zm103 401l33 32 32-62-28-26-5-3-16 5zM471 37l2 6 75 7 48-50h-66l-51 27zm-240 71v4l25 73 52-57-73-22zm59 265l49 60 1 1h2l63-26 4-5-16-38-13-17-15-4-42 10zm98-257l16 15 120 52 21-25-19-59-107 5z"/>
    <path d="M526 99l19 59 38-1 121-80-32-77h-76l-48 50zm-169 55l53 96 22 15 14 4 11-26-53-112-16-15-4-1-3 1-18 16zm537-19l7 21 50 32-34-56zM0 247l45 8 18-70-63-30zM83 93l34 38 46-44-4-11-35-29-11-2zM59 267l20 38 50-22 7-26zm80-15l44 50 43-11-80-55zM11 409l28 26 98-36 6-16-20-10-59-5zm794-160l8 25 8 5 13-6 20-59-38-29zm-164 38h44l45-111 2-25 1-16-79 61z"/>
    <path d="M106 181l40 30 5-2 58-101-46-21-46 44z"/>
  </g>
  <g class="fuel" fill="black">
    <circle cx="164" cy="426" r="3"/>
    <circle cx="465" cy="190" r="3"/>
    <circle cx="660" cy="348" r="3"/>
    <circle cx="891" cy="52" r="3"/>
    <circle cx="488" cy="20" r="3"/>
    <circle cx="919" cy="183" r="3"/>
    <circle cx="947" cy="395" r="3"/>
    <circle cx="70" cy="119" r="3"/>
    <circle cx="448" cy="34" r="3"/>
    <circle cx="382" cy="231" r="3"/>
    <circle cx="553" cy="276" r="3"/>
    <circle cx="158" cy="28" r="3"/>
    <circle cx="479" cy="15" r="3"/>
    <circle cx="202" cy="350" r="3"/>
    <circle cx="927" cy="102" r="3"/>
    <circle cx="83" cy="249" r="3"/>
    <circle cx="130" cy="336" r="3"/>
    <circle cx="222" cy="223" r="3"/>
    <circle cx="448" cy="481" r="3"/>
    <circle cx="772" cy="431" r="3"/>
    <circle cx="936" cy="376" r="3"/>
    <circle cx="432" cy="449" r="3"/>
    <circle cx="10" cy="496" r="3"/>
    <circle cx="41" cy="326" r="3"/>
    <circle cx="277" cy="271" r="3"/>
    <circle cx="378" cy="260" r="3"/>
    <circle cx="256" cy="18" r="3"/>
    <circle cx="203" cy="55" r="3"/>
    <circle cx="855" cy="314" r="3"/>
    <circle cx="103" cy="341" r="3"/>
    <circle cx="9" cy="266" r="3"/>
    <circle cx="193" cy="41" r="3"/>
    <circle cx="299" cy="444" r="3"/>
    <circle cx="623" cy="446" r="3"/>
    <circle cx="304" cy="455" r="3"/>
    <circle cx="485" cy="67" r="3"/>
    <circle cx="627" cy="181" r="3"/>
    <circle cx="579" cy="207" r="3"/>
    <circle cx="287" cy="74" r="3"/>
    <circle cx="879" cy="179" r="3"/>
    <circle cx="431" cy="338" r="3"/>
    <circle cx="864" cy="335" r="3"/>
    <circle cx="874" cy="250" r="3"/>
    <circle cx="538" cy="433" r="3"/>
    <circle cx="639" cy="223" r="3"/>
    <circle cx="360" cy="471" r="3"/>
    <circle cx="53" cy="87" r="3"/>
    <circle cx="775" cy="296" r="3"/>
    <circle cx="815" cy="6" r="3"/>
    <circle cx="935" cy="160" r="3"/>
    <circle cx="190" cy="315" r="3"/>
    <circle cx="860" cy="173" r="3"/>
    <circle cx="280" cy="179" r="3"/>
    <circle cx="439" cy="361" r="3"/>
    <circle cx="106" cy="422" r="3"/>
    <circle cx="641" cy="474" r="3"/>
    <circle cx="104" cy="318" r="3"/>
    <circle cx="239" cy="169" r="3"/>
    <circle cx="509" cy="258" r="3"/>
    <circle cx="121" cy="8" r="3"/>
    <circle cx="305" cy="304" r="3"/>
    <circle cx="169" cy="300" r="3"/>
    <circle cx="838" cy="415" r="3"/>
    <circle cx="79" cy="63" r="3"/>
    <circle cx="52" cy="295" r="3"/>
    <circle cx="334" cy="302" r="3"/>
    <circle cx="345" cy="19" r="3"/>
    <circle cx="302" cy="238" r="3"/>
    <circle cx="786" cy="239" r="3"/>
    <circle cx="478" cy="366" r="3"/>
    <circle cx="217" cy="23" r="3"/>
    <circle cx="299" cy="14" r="3"/>
    <circle cx="380" cy="450" r="3"/>
    <circle cx="415" cy="463" r="3"/>
    <circle cx="745" cy="259" r="3"/>
    <circle cx="802" cy="227" r="3"/>
    <circle cx="751" cy="382" r="3"/>
    <circle cx="907" cy="434" r="3"/>
    <circle cx="388" cy="297" r="3"/>
    <circle cx="207" cy="252" r="3"/>
    <circle cx="205" cy="163" r="3"/>
    <circle cx="845" cy="457" r="3"/>
    <circle cx="269" cy="286" r="3"/>
    <circle cx="814" cy="7" r="3"/>
    <circle cx="805" cy="398" r="3"/>
    <circle cx="490" cy="22" r="3"/>
    <circle cx="260" cy="161" r="3"/>
    <circle cx="358" cy="395" r="3"/>
    <circle cx="489" cy="135" r="3"/>
    <circle cx="578" cy="107" r="3"/>
    <circle cx="410" cy="216" r="3"/>
    <circle cx="933" cy="161" r="3"/>
    <circle cx="15" cy="232" r="3"/>
    <circle cx="111" cy="83" r="3"/>
    <circle cx="87" cy="278" r="3"/>
    <circle cx="183" cy="287" r="3"/>
    <circle cx="98" cy="401" r="3"/>
    <circle cx="816" cy="230" r="3"/>
    <circle cx="662" cy="226" r="3"/>
    <circle cx="164" cy="139" r="3"/>
  </g>
</svg>
